<svg id="visual" viewBox="0 0 900 900" width="50" height="50" xmlns="http://www.w3.org/2000/svg" xmlns:xlink="http://www.w3.org/1999/xlink" version="1.1">
    <rect x="0" y="0" width="900" height="900" fill="#232327"></rect>
    <path d="M0 541L21.5 534.7C43 528.3 86 515.7 128.8 509.7C171.7 503.7 214.3 504.3 257.2 513.3C300 522.3 343 539.7 385.8 539C428.7 538.3 471.3 519.7 514.2 503.3C557 487 600 473 642.8 469.7C685.7 466.3 728.3 473.7 771.2 495.8C814 518 857 555 878.5 573.5L900 592L900 901L878.5 901C857 901 814 901 771.2 901C728.3 901 685.7 901 642.8 901C600 901 557 901 514.2 901C471.3 901 428.7 901 385.8 901C343 901 300 901 257.2 901C214.3 901 171.7 901 128.8 901C86 901 43 901 21.5 901L0 901Z"
    fill="#00d1b2">
    </path>
    <path d="M0 559L21.5 582C43 605 86 651 128.8 664.7C171.7 678.3 214.3 659.7 257.2 655.3C300 651 343 661 385.8 671C428.7 681 471.3 691 514.2 672.5C557 654 600 607 642.8 605.7C685.7 604.3 728.3 648.7 771.2 654.8C814 661 857 629 878.5 613L900 597L900 901L878.5 901C857 901 814 901 771.2 901C728.3 901 685.7 901 642.8 901C600 901 557 901 514.2 901C471.3 901 428.7 901 385.8 901C343 901 300 901 257.2 901C214.3 901 171.7 901 128.8 901C86 901 43 901 21.5 901L0 901Z"
    fill="#00b6d3">
    </path>
    <path d="M0 693L21.5 704C43 715 86 737 128.8 745.5C171.7 754 214.3 749 257.2 734C300 719 343 694 385.8 677.7C428.7 661.3 471.3 653.7 514.2 653C557 652.3 600 658.7 642.8 664.5C685.7 670.3 728.3 675.7 771.2 672.5C814 669.3 857 657.7 878.5 651.8L900 646L900 901L878.5 901C857 901 814 901 771.2 901C728.3 901 685.7 901 642.8 901C600 901 557 901 514.2 901C471.3 901 428.7 901 385.8 901C343 901 300 901 257.2 901C214.3 901 171.7 901 128.8 901C86 901 43 901 21.5 901L0 901Z" fill="#2195d0"></path><path d="M0 786L21.5 791.2C43 796.3 86 806.7 128.8 807.8C171.7 809 214.3 801 257.2 788.5C300 776 343 759 385.8 754.3C428.7 749.7 471.3 757.3 514.2 768.2C557 779 600 793 642.8 803.8C685.7 814.7 728.3 822.3 771.2 826.3C814 830.3 857 830.7 878.5 830.8L900 831L900 901L878.5 901C857 901 814 901 771.2 901C728.3 901 685.7 901 642.8 901C600 901 557 901 514.2 901C471.3 901 428.7 901 385.8 901C343 901 300 901 257.2 901C214.3 901 171.7 901 128.8 901C86 901 43 901 21.5 901L0 901Z"
    fill="#566fb8"></path>
</svg>